<svg width="24" height="24" viewBox="0 0 24 24" fill="none" xmlns="http://www.w3.org/2000/svg">
<path d="M12 21C16.9706 21 21 16.9706 21 12C21 7.02944 16.9706 3 12 3C7.02944 3 3 7.02944 3 12C3 16.9706 7.02944 21 12 21Z" fill="white"/>
<path d="M14.9911 6H12.9533C11.744 6 10.399 6.47867 10.399 8.12839C10.4049 8.70322 10.399 9.25373 10.399 9.8733H9V11.9684H10.4423V18H13.0925V11.9286H14.8417L15 9.86742H13.0468C13.0468 9.86742 13.0512 8.9505 13.0468 8.68423C13.0468 8.03229 13.7676 8.06963 13.811 8.06963C14.154 8.06963 14.8209 8.07057 14.9921 8.06963V6H14.9911Z" fill="black"/>
</svg>
