<svg width="24" height="24" viewBox="0 0 24 24" fill="none" xmlns="http://www.w3.org/2000/svg">
<path fill-rule="evenodd" clip-rule="evenodd" d="M12.0001 4C9.82745 4 9.55502 4.00921 8.70176 4.04814C7.85023 4.08698 7.26871 4.22223 6.75982 4.41997C6.23375 4.62442 5.78761 4.89797 5.34286 5.34271C4.89812 5.78748 4.62457 6.23363 4.42013 6.7597C4.22235 7.26856 4.08713 7.8501 4.04826 8.70161C4.00933 9.5549 4.00012 9.82733 4.00012 12C4.00012 14.1727 4.00933 14.4451 4.04826 15.2984C4.08713 16.1499 4.22235 16.7314 4.42013 17.2403C4.62457 17.7664 4.89812 18.2125 5.34286 18.6573C5.78761 19.102 6.23375 19.3756 6.75982 19.58C7.26871 19.7778 7.85023 19.913 8.70176 19.9519C9.55502 19.9908 9.82745 20 12.0001 20C14.1728 20 14.4452 19.9908 15.2985 19.9519C16.15 19.913 16.7316 19.7778 17.2405 19.58C17.7665 19.3756 18.2127 19.102 18.6574 18.6573C19.1022 18.2125 19.3757 17.7664 19.5801 17.2403C19.7779 16.7314 19.9131 16.1499 19.952 15.2984C19.9909 14.4451 20.0001 14.1727 20.0001 12C20.0001 9.82733 19.9909 9.5549 19.952 8.70161C19.9131 7.8501 19.7779 7.26856 19.5801 6.7597C19.3757 6.23363 19.1022 5.78748 18.6574 5.34271C18.2127 4.89797 17.7665 4.62442 17.2405 4.41997C16.7316 4.22223 16.15 4.08698 15.2985 4.04814C14.4452 4.00921 14.1728 4 12.0001 4ZM12.0001 5.44141C14.1362 5.44141 14.3892 5.44957 15.2327 5.48806C16.0127 5.52362 16.4363 5.65395 16.7183 5.76351C17.0916 5.90863 17.3582 6.08199 17.6381 6.36195C17.918 6.64188 18.0914 6.90838 18.2365 7.2818C18.3461 7.56369 18.4764 7.98729 18.512 8.76728C18.5505 9.61085 18.5586 9.86388 18.5586 12C18.5586 14.1361 18.5505 14.3891 18.512 15.2327C18.4764 16.0126 18.3461 16.4362 18.2365 16.7181C18.0914 17.0916 17.918 17.3581 17.6381 17.638C17.3582 17.9179 17.0916 18.0913 16.7183 18.2364C16.4363 18.346 16.0127 18.4763 15.2327 18.5119C14.3893 18.5504 14.1363 18.5585 12.0001 18.5585C9.86384 18.5585 9.61084 18.5504 8.7674 18.5119C7.98741 18.4763 7.56379 18.346 7.28189 18.2364C6.9085 18.0913 6.64197 17.9179 6.36204 17.638C6.08211 17.3581 5.90872 17.0916 5.7636 16.7181C5.65407 16.4362 5.52374 16.0126 5.48815 15.2327C5.44966 14.3891 5.44153 14.1361 5.44153 12C5.44153 9.86388 5.44966 9.61085 5.48815 8.76728C5.52374 7.98729 5.65407 7.56369 5.7636 7.2818C5.90872 6.90838 6.08211 6.64188 6.36204 6.36195C6.64197 6.08199 6.9085 5.90863 7.28189 5.76351C7.56379 5.65395 7.98741 5.52362 8.76737 5.48806C9.61097 5.44957 9.86397 5.44141 12.0001 5.44141Z" fill="white"/>
<path fill-rule="evenodd" clip-rule="evenodd" d="M12.0003 14.5962C10.5663 14.5962 9.40381 13.4337 9.40381 11.9997C9.40381 10.5657 10.5663 9.4032 12.0003 9.4032C13.4343 9.4032 14.5968 10.5657 14.5968 11.9997C14.5968 13.4337 13.4343 14.5962 12.0003 14.5962ZM12.0002 8C9.7911 8 8.00024 9.79086 8.00024 12C8.00024 14.2092 9.7911 16.0001 12.0002 16.0001C14.2093 16.0001 16.0002 14.2092 16.0002 12C16.0002 9.79086 14.2093 8 12.0002 8Z" fill="white"/>
<path fill-rule="evenodd" clip-rule="evenodd" d="M17.5004 8.00002C17.5004 8.55232 17.0526 9.00003 16.5004 9.00003C15.9481 9.00003 15.5004 8.55232 15.5004 8.00002C15.5004 7.44771 15.9481 7 16.5004 7C17.0526 7 17.5004 7.44771 17.5004 8.00002Z" fill="white"/>
</svg>
