<svg width="24" height="24" viewBox="0 0 24 24" fill="none" xmlns="http://www.w3.org/2000/svg">
<path d="M8.62424 19.2544C15.3523 19.2544 19.0317 13.6938 19.0317 8.87194C19.0317 8.71402 19.0284 8.55683 19.0213 8.40029C19.7372 7.88351 20.3551 7.24365 20.8459 6.51072C20.1905 6.8014 19.4852 6.99704 18.7453 7.08525C19.5005 6.63351 20.0803 5.91884 20.3538 5.06696C19.6358 5.49189 18.8503 5.79144 18.0311 5.9527C17.3636 5.24341 16.4134 4.7998 15.3611 4.7998C13.3411 4.7998 11.7031 6.43396 11.7031 8.44831C11.7031 8.73469 11.7352 9.01316 11.798 9.28035C8.75788 9.12775 6.06214 7.67572 4.25801 5.46782C3.93307 6.0247 3.76216 6.6576 3.76273 7.30189C3.76273 8.56789 4.40847 9.68548 5.39049 10.3393C4.80961 10.3216 4.24149 10.1651 3.73388 9.88293C3.73334 9.89825 3.73334 9.91317 3.73334 9.92954C3.73334 11.6967 4.99417 13.1722 6.66788 13.5065C6.35353 13.5919 6.02916 13.6351 5.70336 13.6349C5.46807 13.6349 5.23877 13.6118 5.01591 13.5692C5.48159 15.019 6.83192 16.0741 8.43291 16.1036C7.18096 17.0825 5.60389 17.6655 3.88985 17.6655C3.59827 17.6658 3.30692 17.6489 3.01733 17.615C4.63618 18.6501 6.55841 19.2541 8.62442 19.2541" fill="white"/>
</svg>
